<mxfile host="Electron" agent="Mozilla/5.0 (Windows NT 10.0; Win64; x64) AppleWebKit/537.36 (KHTML, like Gecko) draw.io/28.0.4 Chrome/138.0.7204.97 Electron/37.2.1 Safari/537.36" version="28.0.4">
  <diagram name="Страница — 1" id="roOKq5DwXI3CILIupHe0">
    <mxGraphModel dx="2977" dy="3255" grid="1" gridSize="10" guides="1" tooltips="1" connect="1" arrows="1" fold="1" page="1" pageScale="1" pageWidth="827" pageHeight="1169" math="0" shadow="0">
      <root>
        <mxCell id="0" />
        <mxCell id="1" parent="0" />
        <object placeholders="1" c4Name="Доктор" c4Type="Person" c4Description="Специалист медик" label="&lt;font style=&quot;font-size: 16px&quot;&gt;&lt;b&gt;%c4Name%&lt;/b&gt;&lt;/font&gt;&lt;div&gt;[%c4Type%]&lt;/div&gt;&lt;br&gt;&lt;div&gt;&lt;font style=&quot;font-size: 11px&quot;&gt;&lt;font color=&quot;#cccccc&quot;&gt;%c4Description%&lt;/font&gt;&lt;/div&gt;" id="bFH3ZPXxLbC2_Jf3WI2n-1">
          <mxCell style="html=1;fontSize=11;dashed=0;whiteSpace=wrap;fillColor=#083F75;strokeColor=#06315C;fontColor=#ffffff;shape=mxgraph.c4.person2;align=center;metaEdit=1;points=[[0.5,0,0],[1,0.5,0],[1,0.75,0],[0.75,1,0],[0.5,1,0],[0.25,1,0],[0,0.75,0],[0,0.5,0]];resizable=0;" parent="1" vertex="1">
            <mxGeometry x="70.13999999999999" y="-175" width="200" height="180" as="geometry" />
          </mxCell>
        </object>
        <object placeholders="1" c4Name="Портал для клиентов" c4Type="Software System" c4Description="Портал для записи к врачу" label="&lt;font style=&quot;font-size: 16px&quot;&gt;&lt;b&gt;%c4Name%&lt;/b&gt;&lt;/font&gt;&lt;div&gt;[%c4Type%]&lt;/div&gt;&lt;br&gt;&lt;div&gt;&lt;font style=&quot;font-size: 11px&quot;&gt;&lt;font color=&quot;#cccccc&quot;&gt;%c4Description%&lt;/font&gt;&lt;/div&gt;" id="bFH3ZPXxLbC2_Jf3WI2n-2">
          <mxCell style="rounded=1;whiteSpace=wrap;html=1;labelBackgroundColor=none;fillColor=#1061B0;fontColor=#ffffff;align=center;arcSize=10;strokeColor=#0D5091;metaEdit=1;resizable=0;points=[[0.25,0,0],[0.5,0,0],[0.75,0,0],[1,0.25,0],[1,0.5,0],[1,0.75,0],[0.75,1,0],[0.5,1,0],[0.25,1,0],[0,0.75,0],[0,0.5,0],[0,0.25,0]];" parent="1" vertex="1">
            <mxGeometry x="940.14" y="-850" width="240" height="120" as="geometry" />
          </mxCell>
        </object>
        <object placeholders="1" c4Name="Лаборатория" c4Type="Software System" c4Description="Медицинская лаборатория" label="&lt;font style=&quot;font-size: 16px&quot;&gt;&lt;b&gt;%c4Name%&lt;/b&gt;&lt;/font&gt;&lt;div&gt;[%c4Type%]&lt;/div&gt;&lt;br&gt;&lt;div&gt;&lt;font style=&quot;font-size: 11px&quot;&gt;&lt;font color=&quot;#cccccc&quot;&gt;%c4Description%&lt;/font&gt;&lt;/div&gt;" id="bFH3ZPXxLbC2_Jf3WI2n-3">
          <mxCell style="rounded=1;whiteSpace=wrap;html=1;labelBackgroundColor=none;fillColor=#8C8496;fontColor=#ffffff;align=center;arcSize=10;strokeColor=#736782;metaEdit=1;resizable=0;points=[[0.25,0,0],[0.5,0,0],[0.75,0,0],[1,0.25,0],[1,0.5,0],[1,0.75,0],[0.75,1,0],[0.5,1,0],[0.25,1,0],[0,0.75,0],[0,0.5,0],[0,0.25,0]];" parent="1" vertex="1">
            <mxGeometry x="90.13999999999999" y="-840" width="240" height="120" as="geometry" />
          </mxCell>
        </object>
        <object placeholders="1" c4Name="Мобильное приложение " c4Type="Software System" c4Description="Приложение для записи к врачу и просмотру своих данных" label="&lt;font style=&quot;font-size: 16px&quot;&gt;&lt;b&gt;%c4Name%&lt;/b&gt;&lt;/font&gt;&lt;div&gt;[%c4Type%]&lt;/div&gt;&lt;br&gt;&lt;div&gt;&lt;font style=&quot;font-size: 11px&quot;&gt;&lt;font color=&quot;#cccccc&quot;&gt;%c4Description%&lt;/font&gt;&lt;/div&gt;" id="bFH3ZPXxLbC2_Jf3WI2n-4">
          <mxCell style="rounded=1;whiteSpace=wrap;html=1;labelBackgroundColor=none;fillColor=#1061B0;fontColor=#ffffff;align=center;arcSize=10;strokeColor=#0D5091;metaEdit=1;resizable=0;points=[[0.25,0,0],[0.5,0,0],[0.75,0,0],[1,0.25,0],[1,0.5,0],[1,0.75,0],[0.75,1,0],[0.5,1,0],[0.25,1,0],[0,0.75,0],[0,0.5,0],[0,0.25,0]];" parent="1" vertex="1">
            <mxGeometry x="530.14" y="-850" width="240" height="120" as="geometry" />
          </mxCell>
        </object>
        <object placeholders="1" c4Name="1С Бухгалтерия предприятия" c4Type="Software System" c4Description="Бухгалтерская система учета" label="&lt;font style=&quot;font-size: 16px&quot;&gt;&lt;b&gt;%c4Name%&lt;/b&gt;&lt;/font&gt;&lt;div&gt;[%c4Type%]&lt;/div&gt;&lt;br&gt;&lt;div&gt;&lt;font style=&quot;font-size: 11px&quot;&gt;&lt;font color=&quot;#cccccc&quot;&gt;%c4Description%&lt;/font&gt;&lt;/div&gt;" id="bFH3ZPXxLbC2_Jf3WI2n-5">
          <mxCell style="rounded=1;whiteSpace=wrap;html=1;labelBackgroundColor=none;fillColor=#1061B0;fontColor=#ffffff;align=center;arcSize=10;strokeColor=#0D5091;metaEdit=1;resizable=0;points=[[0.25,0,0],[0.5,0,0],[0.75,0,0],[1,0.25,0],[1,0.5,0],[1,0.75,0],[0.75,1,0],[0.5,1,0],[0.25,1,0],[0,0.75,0],[0,0.5,0],[0,0.25,0]];" parent="1" vertex="1">
            <mxGeometry x="490.14" y="680" width="240" height="120" as="geometry" />
          </mxCell>
        </object>
        <object placeholders="1" c4Name="1С Торговля и склад" c4Type="Software System" c4Description="Складская система учета" label="&lt;font style=&quot;font-size: 16px&quot;&gt;&lt;b&gt;%c4Name%&lt;/b&gt;&lt;/font&gt;&lt;div&gt;[%c4Type%]&lt;/div&gt;&lt;br&gt;&lt;div&gt;&lt;font style=&quot;font-size: 11px&quot;&gt;&lt;font color=&quot;#cccccc&quot;&gt;%c4Description%&lt;/font&gt;&lt;/div&gt;" id="bFH3ZPXxLbC2_Jf3WI2n-6">
          <mxCell style="rounded=1;whiteSpace=wrap;html=1;labelBackgroundColor=none;fillColor=#1061B0;fontColor=#ffffff;align=center;arcSize=10;strokeColor=#0D5091;metaEdit=1;resizable=0;points=[[0.25,0,0],[0.5,0,0],[0.75,0,0],[1,0.25,0],[1,0.5,0],[1,0.75,0],[0.75,1,0],[0.5,1,0],[0.25,1,0],[0,0.75,0],[0,0.5,0],[0,0.25,0]];" parent="1" vertex="1">
            <mxGeometry x="490.14" y="490" width="240" height="120" as="geometry" />
          </mxCell>
        </object>
        <object placeholders="1" c4Name="ККМ" c4Type="Software System" c4Description="Контрольно-кассовая машина" label="&lt;font style=&quot;font-size: 16px&quot;&gt;&lt;b&gt;%c4Name%&lt;/b&gt;&lt;/font&gt;&lt;div&gt;[%c4Type%]&lt;/div&gt;&lt;br&gt;&lt;div&gt;&lt;font style=&quot;font-size: 11px&quot;&gt;&lt;font color=&quot;#cccccc&quot;&gt;%c4Description%&lt;/font&gt;&lt;/div&gt;" id="bFH3ZPXxLbC2_Jf3WI2n-7">
          <mxCell style="rounded=1;whiteSpace=wrap;html=1;labelBackgroundColor=none;fillColor=#1061B0;fontColor=#ffffff;align=center;arcSize=10;strokeColor=#0D5091;metaEdit=1;resizable=0;points=[[0.25,0,0],[0.5,0,0],[0.75,0,0],[1,0.25,0],[1,0.5,0],[1,0.75,0],[0.75,1,0],[0.5,1,0],[0.25,1,0],[0,0.75,0],[0,0.5,0],[0,0.25,0]];" parent="1" vertex="1">
            <mxGeometry x="490.14" y="920" width="240" height="120" as="geometry" />
          </mxCell>
        </object>
        <object placeholders="1" c4Name="Администратор" c4Type="Person" c4Description="Специалист ресепшена" label="&lt;font style=&quot;font-size: 16px&quot;&gt;&lt;b&gt;%c4Name%&lt;/b&gt;&lt;/font&gt;&lt;div&gt;[%c4Type%]&lt;/div&gt;&lt;br&gt;&lt;div&gt;&lt;font style=&quot;font-size: 11px&quot;&gt;&lt;font color=&quot;#cccccc&quot;&gt;%c4Description%&lt;/font&gt;&lt;/div&gt;" id="bFH3ZPXxLbC2_Jf3WI2n-8">
          <mxCell style="html=1;fontSize=11;dashed=0;whiteSpace=wrap;fillColor=#083F75;strokeColor=#06315C;fontColor=#ffffff;shape=mxgraph.c4.person2;align=center;metaEdit=1;points=[[0.5,0,0],[1,0.5,0],[1,0.75,0],[0.75,1,0],[0.5,1,0],[0.25,1,0],[0,0.75,0],[0,0.5,0]];resizable=0;" parent="1" vertex="1">
            <mxGeometry x="70.13999999999999" y="85" width="200" height="180" as="geometry" />
          </mxCell>
        </object>
        <mxCell id="osxkgMMUtb1qt-IwUCUp-45" style="edgeStyle=orthogonalEdgeStyle;rounded=0;orthogonalLoop=1;jettySize=auto;html=1;exitX=1;exitY=0.75;exitDx=0;exitDy=0;exitPerimeter=0;" edge="1" parent="1" source="bFH3ZPXxLbC2_Jf3WI2n-9" target="bFH3ZPXxLbC2_Jf3WI2n-5">
          <mxGeometry relative="1" as="geometry" />
        </mxCell>
        <mxCell id="osxkgMMUtb1qt-IwUCUp-46" value="Процессинг платежей&lt;div&gt;и бухгалтерия&lt;/div&gt;" style="edgeLabel;html=1;align=center;verticalAlign=middle;resizable=0;points=[];" vertex="1" connectable="0" parent="osxkgMMUtb1qt-IwUCUp-45">
          <mxGeometry x="0.0502" y="-7" relative="1" as="geometry">
            <mxPoint y="1" as="offset" />
          </mxGeometry>
        </mxCell>
        <object placeholders="1" c4Name="Бухгалтер" c4Type="Person" c4Description="Сотрудник бухгалтерии" label="&lt;font style=&quot;font-size: 16px&quot;&gt;&lt;b&gt;%c4Name%&lt;/b&gt;&lt;/font&gt;&lt;div&gt;[%c4Type%]&lt;/div&gt;&lt;br&gt;&lt;div&gt;&lt;font style=&quot;font-size: 11px&quot;&gt;&lt;font color=&quot;#cccccc&quot;&gt;%c4Description%&lt;/font&gt;&lt;/div&gt;" id="bFH3ZPXxLbC2_Jf3WI2n-9">
          <mxCell style="html=1;fontSize=11;dashed=0;whiteSpace=wrap;fillColor=#083F75;strokeColor=#06315C;fontColor=#ffffff;shape=mxgraph.c4.person2;align=center;metaEdit=1;points=[[0.5,0,0],[1,0.5,0],[1,0.75,0],[0.75,1,0],[0.5,1,0],[0.25,1,0],[0,0.75,0],[0,0.5,0]];resizable=0;" parent="1" vertex="1">
            <mxGeometry x="70.13999999999999" y="644" width="200" height="180" as="geometry" />
          </mxCell>
        </object>
        <object placeholders="1" c4Name="Сотрудник склада" c4Type="Person" c4Description="" label="&lt;font style=&quot;font-size: 16px&quot;&gt;&lt;b&gt;%c4Name%&lt;/b&gt;&lt;/font&gt;&lt;div&gt;[%c4Type%]&lt;/div&gt;&lt;br&gt;&lt;div&gt;&lt;font style=&quot;font-size: 11px&quot;&gt;&lt;font color=&quot;#cccccc&quot;&gt;%c4Description%&lt;/font&gt;&lt;/div&gt;" id="bFH3ZPXxLbC2_Jf3WI2n-10">
          <mxCell style="html=1;fontSize=11;dashed=0;whiteSpace=wrap;fillColor=#083F75;strokeColor=#06315C;fontColor=#ffffff;shape=mxgraph.c4.person2;align=center;metaEdit=1;points=[[0.5,0,0],[1,0.5,0],[1,0.75,0],[0.75,1,0],[0.5,1,0],[0.25,1,0],[0,0.75,0],[0,0.5,0]];resizable=0;" parent="1" vertex="1">
            <mxGeometry x="70.13999999999999" y="405" width="200" height="180" as="geometry" />
          </mxCell>
        </object>
        <object placeholders="1" c4Name="Кассир" c4Type="Person" c4Description="" label="&lt;font style=&quot;font-size: 16px&quot;&gt;&lt;b&gt;%c4Name%&lt;/b&gt;&lt;/font&gt;&lt;div&gt;[%c4Type%]&lt;/div&gt;&lt;br&gt;&lt;div&gt;&lt;font style=&quot;font-size: 11px&quot;&gt;&lt;font color=&quot;#cccccc&quot;&gt;%c4Description%&lt;/font&gt;&lt;/div&gt;" id="bFH3ZPXxLbC2_Jf3WI2n-11">
          <mxCell style="html=1;fontSize=11;dashed=0;whiteSpace=wrap;fillColor=#083F75;strokeColor=#06315C;fontColor=#ffffff;shape=mxgraph.c4.person2;align=center;metaEdit=1;points=[[0.5,0,0],[1,0.5,0],[1,0.75,0],[0.75,1,0],[0.5,1,0],[0.25,1,0],[0,0.75,0],[0,0.5,0]];resizable=0;" parent="1" vertex="1">
            <mxGeometry x="80.13999999999999" y="880" width="200" height="180" as="geometry" />
          </mxCell>
        </object>
        <object placeholders="1" c4Name="Пациент" c4Type="Person" c4Description="" label="&lt;font style=&quot;font-size: 16px&quot;&gt;&lt;b&gt;%c4Name%&lt;/b&gt;&lt;/font&gt;&lt;div&gt;[%c4Type%]&lt;/div&gt;&lt;br&gt;&lt;div&gt;&lt;font style=&quot;font-size: 11px&quot;&gt;&lt;font color=&quot;#cccccc&quot;&gt;%c4Description%&lt;/font&gt;&lt;/div&gt;" id="bFH3ZPXxLbC2_Jf3WI2n-12">
          <mxCell style="html=1;fontSize=11;dashed=0;whiteSpace=wrap;fillColor=#6C6477;strokeColor=#4D4D4D;fontColor=#ffffff;shape=mxgraph.c4.person2;align=center;metaEdit=1;points=[[0.5,0,0],[1,0.5,0],[1,0.75,0],[0.75,1,0],[0.5,1,0],[0.25,1,0],[0,0.75,0],[0,0.5,0]];resizable=0;" parent="1" vertex="1">
            <mxGeometry x="761.14" y="-1120" width="200" height="180" as="geometry" />
          </mxCell>
        </object>
        <object placeholders="1" c4Name="Портал для сотрудников ресепшена" c4Type="Software System" c4Description="Портал для работы с клиентами" label="&lt;font style=&quot;font-size: 16px&quot;&gt;&lt;b&gt;%c4Name%&lt;/b&gt;&lt;/font&gt;&lt;div&gt;[%c4Type%]&lt;/div&gt;&lt;br&gt;&lt;div&gt;&lt;font style=&quot;font-size: 11px&quot;&gt;&lt;font color=&quot;#cccccc&quot;&gt;%c4Description%&lt;/font&gt;&lt;/div&gt;" id="bFH3ZPXxLbC2_Jf3WI2n-13">
          <mxCell style="rounded=1;whiteSpace=wrap;html=1;labelBackgroundColor=none;fillColor=#1061B0;fontColor=#ffffff;align=center;arcSize=10;strokeColor=#0D5091;metaEdit=1;resizable=0;points=[[0.25,0,0],[0.5,0,0],[0.75,0,0],[1,0.25,0],[1,0.5,0],[1,0.75,0],[0.75,1,0],[0.5,1,0],[0.25,1,0],[0,0.75,0],[0,0.5,0],[0,0.25,0]];" parent="1" vertex="1">
            <mxGeometry x="480.14" y="130" width="240" height="120" as="geometry" />
          </mxCell>
        </object>
        <object placeholders="1" c4Name="Платежный шлюз" c4Type="Software System" c4Description="Шлюз для осуществления платежей за услуги" label="&lt;font style=&quot;font-size: 16px&quot;&gt;&lt;b&gt;%c4Name%&lt;/b&gt;&lt;/font&gt;&lt;div&gt;[%c4Type%]&lt;/div&gt;&lt;br&gt;&lt;div&gt;&lt;font style=&quot;font-size: 11px&quot;&gt;&lt;font color=&quot;#cccccc&quot;&gt;%c4Description%&lt;/font&gt;&lt;/div&gt;" id="bFH3ZPXxLbC2_Jf3WI2n-14">
          <mxCell style="rounded=1;whiteSpace=wrap;html=1;labelBackgroundColor=none;fillColor=#1061B0;fontColor=#ffffff;align=center;arcSize=10;strokeColor=#0D5091;metaEdit=1;resizable=0;points=[[0.25,0,0],[0.5,0,0],[0.75,0,0],[1,0.25,0],[1,0.5,0],[1,0.75,0],[0.75,1,0],[0.5,1,0],[0.25,1,0],[0,0.75,0],[0,0.5,0],[0,0.25,0]];" parent="1" vertex="1">
            <mxGeometry x="840.14" y="920" width="240" height="120" as="geometry" />
          </mxCell>
        </object>
        <object placeholders="1" c4Name="Платежная система" c4Type="Software System" c4Description="Система для принятия платежей" label="&lt;font style=&quot;font-size: 16px&quot;&gt;&lt;b&gt;%c4Name%&lt;/b&gt;&lt;/font&gt;&lt;div&gt;[%c4Type%]&lt;/div&gt;&lt;br&gt;&lt;div&gt;&lt;font style=&quot;font-size: 11px&quot;&gt;&lt;font color=&quot;#cccccc&quot;&gt;%c4Description%&lt;/font&gt;&lt;/div&gt;" id="bFH3ZPXxLbC2_Jf3WI2n-16">
          <mxCell style="rounded=1;whiteSpace=wrap;html=1;labelBackgroundColor=none;fillColor=#8C8496;fontColor=#ffffff;align=center;arcSize=10;strokeColor=#736782;metaEdit=1;resizable=0;points=[[0.25,0,0],[0.5,0,0],[0.75,0,0],[1,0.25,0],[1,0.5,0],[1,0.75,0],[0.75,1,0],[0.5,1,0],[0.25,1,0],[0,0.75,0],[0,0.5,0],[0,0.25,0]];" parent="1" vertex="1">
            <mxGeometry x="1180.1399999999999" y="920" width="240" height="120" as="geometry" />
          </mxCell>
        </object>
        <object placeholders="1" c4Name="CRM" c4Type="Software System" c4Description="CRM для сбора данных о клиентах" label="&lt;font style=&quot;font-size: 16px&quot;&gt;&lt;b&gt;%c4Name%&lt;/b&gt;&lt;/font&gt;&lt;div&gt;[%c4Type%]&lt;/div&gt;&lt;br&gt;&lt;div&gt;&lt;font style=&quot;font-size: 11px&quot;&gt;&lt;font color=&quot;#cccccc&quot;&gt;%c4Description%&lt;/font&gt;&lt;/div&gt;" id="bFH3ZPXxLbC2_Jf3WI2n-17">
          <mxCell style="rounded=1;whiteSpace=wrap;html=1;labelBackgroundColor=none;fillColor=#1061B0;fontColor=#ffffff;align=center;arcSize=10;strokeColor=#0D5091;metaEdit=1;resizable=0;points=[[0.25,0,0],[0.5,0,0],[0.75,0,0],[1,0.25,0],[1,0.5,0],[1,0.75,0],[0.75,1,0],[0.5,1,0],[0.25,1,0],[0,0.75,0],[0,0.5,0],[0,0.25,0]];" parent="1" vertex="1">
            <mxGeometry x="480.14" y="310" width="240" height="120" as="geometry" />
          </mxCell>
        </object>
        <object placeholders="1" c4Name="Система обработки анализов" c4Type="Software System" c4Description="Система для интеграции с лабораторией анализов и обработки анализов" label="&lt;font style=&quot;font-size: 16px&quot;&gt;&lt;b&gt;%c4Name%&lt;/b&gt;&lt;/font&gt;&lt;div&gt;[%c4Type%]&lt;/div&gt;&lt;br&gt;&lt;div&gt;&lt;font style=&quot;font-size: 11px&quot;&gt;&lt;font color=&quot;#cccccc&quot;&gt;%c4Description%&lt;/font&gt;&lt;/div&gt;" id="bFH3ZPXxLbC2_Jf3WI2n-18">
          <mxCell style="rounded=1;whiteSpace=wrap;html=1;labelBackgroundColor=none;fillColor=#1061B0;fontColor=#ffffff;align=center;arcSize=10;strokeColor=#0D5091;metaEdit=1;resizable=0;points=[[0.25,0,0],[0.5,0,0],[0.75,0,0],[1,0.25,0],[1,0.5,0],[1,0.75,0],[0.75,1,0],[0.5,1,0],[0.25,1,0],[0,0.75,0],[0,0.5,0],[0,0.25,0]];" parent="1" vertex="1">
            <mxGeometry x="90.13999999999999" y="-620" width="240" height="120" as="geometry" />
          </mxCell>
        </object>
        <object placeholders="1" c4Name="Система аналитики" c4Type="Software System" c4Description="Система по работе с аналитическими данными" label="&lt;font style=&quot;font-size: 16px&quot;&gt;&lt;b&gt;%c4Name%&lt;/b&gt;&lt;/font&gt;&lt;div&gt;[%c4Type%]&lt;/div&gt;&lt;br&gt;&lt;div&gt;&lt;font style=&quot;font-size: 11px&quot;&gt;&lt;font color=&quot;#cccccc&quot;&gt;%c4Description%&lt;/font&gt;&lt;/div&gt;" id="bFH3ZPXxLbC2_Jf3WI2n-19">
          <mxCell style="rounded=1;whiteSpace=wrap;html=1;labelBackgroundColor=none;fillColor=#1061B0;fontColor=#ffffff;align=center;arcSize=10;strokeColor=#0D5091;metaEdit=1;resizable=0;points=[[0.25,0,0],[0.5,0,0],[0.75,0,0],[1,0.25,0],[1,0.5,0],[1,0.75,0],[0.75,1,0],[0.5,1,0],[0.25,1,0],[0,0.75,0],[0,0.5,0],[0,0.25,0]];" parent="1" vertex="1">
            <mxGeometry x="1330.1399999999999" y="530" width="240" height="120" as="geometry" />
          </mxCell>
        </object>
        <object placeholders="1" c4Name="Keycloak" c4Type="Software System" c4Description="IAM-система для разграничения доступа" label="&lt;font style=&quot;font-size: 16px&quot;&gt;&lt;b&gt;%c4Name%&lt;/b&gt;&lt;/font&gt;&lt;div&gt;[%c4Type%]&lt;/div&gt;&lt;br&gt;&lt;div&gt;&lt;font style=&quot;font-size: 11px&quot;&gt;&lt;font color=&quot;#cccccc&quot;&gt;%c4Description%&lt;/font&gt;&lt;/div&gt;" id="bFH3ZPXxLbC2_Jf3WI2n-20">
          <mxCell style="rounded=1;whiteSpace=wrap;html=1;labelBackgroundColor=none;fillColor=#1061B0;fontColor=#ffffff;align=center;arcSize=10;strokeColor=#0D5091;metaEdit=1;resizable=0;points=[[0.25,0,0],[0.5,0,0],[0.75,0,0],[1,0.25,0],[1,0.5,0],[1,0.75,0],[0.75,1,0],[0.5,1,0],[0.25,1,0],[0,0.75,0],[0,0.5,0],[0,0.25,0]];" parent="1" vertex="1">
            <mxGeometry x="960.14" y="710" width="240" height="120" as="geometry" />
          </mxCell>
        </object>
        <object placeholders="1" c4Name="Apache Atlas" c4Type="Software System" c4Description="Система для управления данными" label="&lt;font style=&quot;font-size: 16px&quot;&gt;&lt;b&gt;%c4Name%&lt;/b&gt;&lt;/font&gt;&lt;div&gt;[%c4Type%]&lt;/div&gt;&lt;br&gt;&lt;div&gt;&lt;font style=&quot;font-size: 11px&quot;&gt;&lt;font color=&quot;#cccccc&quot;&gt;%c4Description%&lt;/font&gt;&lt;/div&gt;" id="bFH3ZPXxLbC2_Jf3WI2n-21">
          <mxCell style="rounded=1;whiteSpace=wrap;html=1;labelBackgroundColor=none;fillColor=#1061B0;fontColor=#ffffff;align=center;arcSize=10;strokeColor=#0D5091;metaEdit=1;resizable=0;points=[[0.25,0,0],[0.5,0,0],[0.75,0,0],[1,0.25,0],[1,0.5,0],[1,0.75,0],[0.75,1,0],[0.5,1,0],[0.25,1,0],[0,0.75,0],[0,0.5,0],[0,0.25,0]];" parent="1" vertex="1">
            <mxGeometry x="1440.1399999999999" y="-10" width="240" height="120" as="geometry" />
          </mxCell>
        </object>
        <object placeholders="1" c4Name="ELK" c4Type="Software System" c4Description="Система для сбора, нормализации и хранения данных" label="&lt;font style=&quot;font-size: 16px&quot;&gt;&lt;b&gt;%c4Name%&lt;/b&gt;&lt;/font&gt;&lt;div&gt;[%c4Type%]&lt;/div&gt;&lt;br&gt;&lt;div&gt;&lt;font style=&quot;font-size: 11px&quot;&gt;&lt;font color=&quot;#cccccc&quot;&gt;%c4Description%&lt;/font&gt;&lt;/div&gt;" id="bFH3ZPXxLbC2_Jf3WI2n-22">
          <mxCell style="rounded=1;whiteSpace=wrap;html=1;labelBackgroundColor=none;fillColor=#1061B0;fontColor=#ffffff;align=center;arcSize=10;strokeColor=#0D5091;metaEdit=1;resizable=0;points=[[0.25,0,0],[0.5,0,0],[0.75,0,0],[1,0.25,0],[1,0.5,0],[1,0.75,0],[0.75,1,0],[0.5,1,0],[0.25,1,0],[0,0.75,0],[0,0.5,0],[0,0.25,0]];" parent="1" vertex="1">
            <mxGeometry x="1430.1399999999999" y="250" width="240" height="120" as="geometry" />
          </mxCell>
        </object>
        <object placeholders="1" c4Name="Система авторизации" c4Type="Software System" c4Description="Система для авторизации пользователей" label="&lt;font style=&quot;font-size: 16px&quot;&gt;&lt;b&gt;%c4Name%&lt;/b&gt;&lt;/font&gt;&lt;div&gt;[%c4Type%]&lt;/div&gt;&lt;br&gt;&lt;div&gt;&lt;font style=&quot;font-size: 11px&quot;&gt;&lt;font color=&quot;#cccccc&quot;&gt;%c4Description%&lt;/font&gt;&lt;/div&gt;" id="bFH3ZPXxLbC2_Jf3WI2n-23">
          <mxCell style="rounded=1;whiteSpace=wrap;html=1;labelBackgroundColor=none;fillColor=#1061B0;fontColor=#ffffff;align=center;arcSize=10;strokeColor=#0D5091;metaEdit=1;resizable=0;points=[[0.25,0,0],[0.5,0,0],[0.75,0,0],[1,0.25,0],[1,0.5,0],[1,0.75,0],[0.75,1,0],[0.5,1,0],[0.25,1,0],[0,0.75,0],[0,0.5,0],[0,0.25,0]];" parent="1" vertex="1">
            <mxGeometry x="1200.1399999999999" y="-650" width="240" height="120" as="geometry" />
          </mxCell>
        </object>
        <object placeholders="1" c4Name="Аналитик" c4Type="Person" c4Description="" label="&lt;font style=&quot;font-size: 16px&quot;&gt;&lt;b&gt;%c4Name%&lt;/b&gt;&lt;/font&gt;&lt;div&gt;[%c4Type%]&lt;/div&gt;&lt;br&gt;&lt;div&gt;&lt;font style=&quot;font-size: 11px&quot;&gt;&lt;font color=&quot;#cccccc&quot;&gt;%c4Description%&lt;/font&gt;&lt;/div&gt;" id="bFH3ZPXxLbC2_Jf3WI2n-26">
          <mxCell style="html=1;fontSize=11;dashed=0;whiteSpace=wrap;fillColor=#083F75;strokeColor=#06315C;fontColor=#ffffff;shape=mxgraph.c4.person2;align=center;metaEdit=1;points=[[0.5,0,0],[1,0.5,0],[1,0.75,0],[0.75,1,0],[0.5,1,0],[0.25,1,0],[0,0.75,0],[0,0.5,0]];resizable=0;" parent="1" vertex="1">
            <mxGeometry x="1670.1399999999999" y="470" width="200" height="180" as="geometry" />
          </mxCell>
        </object>
        <mxCell id="bFH3ZPXxLbC2_Jf3WI2n-28" style="edgeStyle=orthogonalEdgeStyle;rounded=0;orthogonalLoop=1;jettySize=auto;html=1;exitX=0;exitY=0.75;exitDx=0;exitDy=0;exitPerimeter=0;entryX=0.421;entryY=-0.008;entryDx=0;entryDy=0;entryPerimeter=0;" parent="1" source="bFH3ZPXxLbC2_Jf3WI2n-12" target="bFH3ZPXxLbC2_Jf3WI2n-4" edge="1">
          <mxGeometry relative="1" as="geometry" />
        </mxCell>
        <mxCell id="bFH3ZPXxLbC2_Jf3WI2n-31" value="Запись к специалисту,&lt;div&gt;доступ к своим данным&lt;/div&gt;" style="edgeLabel;html=1;align=center;verticalAlign=middle;resizable=0;points=[];" parent="bFH3ZPXxLbC2_Jf3WI2n-28" vertex="1" connectable="0">
          <mxGeometry x="-0.4741" y="2" relative="1" as="geometry">
            <mxPoint x="1" as="offset" />
          </mxGeometry>
        </mxCell>
        <mxCell id="bFH3ZPXxLbC2_Jf3WI2n-29" style="edgeStyle=orthogonalEdgeStyle;rounded=0;orthogonalLoop=1;jettySize=auto;html=1;exitX=1;exitY=0.75;exitDx=0;exitDy=0;exitPerimeter=0;entryX=0.646;entryY=0.008;entryDx=0;entryDy=0;entryPerimeter=0;" parent="1" source="bFH3ZPXxLbC2_Jf3WI2n-12" target="bFH3ZPXxLbC2_Jf3WI2n-2" edge="1">
          <mxGeometry relative="1" as="geometry" />
        </mxCell>
        <mxCell id="bFH3ZPXxLbC2_Jf3WI2n-30" value="Запись к специалисту" style="edgeLabel;html=1;align=center;verticalAlign=middle;resizable=0;points=[];" parent="bFH3ZPXxLbC2_Jf3WI2n-29" vertex="1" connectable="0">
          <mxGeometry x="-0.4592" y="7" relative="1" as="geometry">
            <mxPoint as="offset" />
          </mxGeometry>
        </mxCell>
        <object placeholders="1" c4Name="Брокер сообщений" c4Type="Container" c4Technology="Apache Kafka" c4Description="Обмен данными" label="&lt;font style=&quot;font-size: 16px&quot;&gt;&lt;b&gt;%c4Name%&lt;/b&gt;&lt;/font&gt;&lt;div&gt;[%c4Type%:&amp;nbsp;%c4Technology%]&lt;/div&gt;&lt;br&gt;&lt;div&gt;&lt;font style=&quot;font-size: 11px&quot;&gt;&lt;font color=&quot;#E6E6E6&quot;&gt;%c4Description%&lt;/font&gt;&lt;/div&gt;" id="bFH3ZPXxLbC2_Jf3WI2n-46">
          <mxCell style="shape=cylinder3;size=15;direction=south;whiteSpace=wrap;html=1;boundedLbl=1;rounded=0;labelBackgroundColor=none;fillColor=#23A2D9;fontSize=12;fontColor=#ffffff;align=center;strokeColor=#0E7DAD;metaEdit=1;points=[[0.5,0,0],[1,0.25,0],[1,0.5,0],[1,0.75,0],[0.5,1,0],[0,0.75,0],[0,0.5,0],[0,0.25,0]];resizable=0;" parent="1" vertex="1">
            <mxGeometry x="960.14" y="110" width="240" height="120" as="geometry" />
          </mxCell>
        </object>
        <object placeholders="1" c4Name="API Gateway" c4Type="Software System" c4Description="Шлюз" label="&lt;font style=&quot;font-size: 16px&quot;&gt;&lt;b&gt;%c4Name%&lt;/b&gt;&lt;/font&gt;&lt;div&gt;[%c4Type%]&lt;/div&gt;&lt;br&gt;&lt;div&gt;&lt;font style=&quot;font-size: 11px&quot;&gt;&lt;font color=&quot;#cccccc&quot;&gt;%c4Description%&lt;/font&gt;&lt;/div&gt;" id="osxkgMMUtb1qt-IwUCUp-1">
          <mxCell style="rounded=1;whiteSpace=wrap;html=1;labelBackgroundColor=none;fillColor=#1061B0;fontColor=#ffffff;align=center;arcSize=10;strokeColor=#0D5091;metaEdit=1;resizable=0;points=[[0.25,0,0],[0.5,0,0],[0.75,0,0],[1,0.25,0],[1,0.5,0],[1,0.75,0],[0.75,1,0],[0.5,1,0],[0.25,1,0],[0,0.75,0],[0,0.5,0],[0,0.25,0]];" vertex="1" parent="1">
            <mxGeometry x="790.14" y="-440" width="240" height="120" as="geometry" />
          </mxCell>
        </object>
        <object placeholders="1" c4Name="Портал для врачей" c4Type="Software System" c4Description="Портал для работы с пациентами" label="&lt;font style=&quot;font-size: 16px&quot;&gt;&lt;b&gt;%c4Name%&lt;/b&gt;&lt;/font&gt;&lt;div&gt;[%c4Type%]&lt;/div&gt;&lt;br&gt;&lt;div&gt;&lt;font style=&quot;font-size: 11px&quot;&gt;&lt;font color=&quot;#cccccc&quot;&gt;%c4Description%&lt;/font&gt;&lt;/div&gt;" id="osxkgMMUtb1qt-IwUCUp-2">
          <mxCell style="rounded=1;whiteSpace=wrap;html=1;labelBackgroundColor=none;fillColor=#1061B0;fontColor=#ffffff;align=center;arcSize=10;strokeColor=#0D5091;metaEdit=1;resizable=0;points=[[0.25,0,0],[0.5,0,0],[0.75,0,0],[1,0.25,0],[1,0.5,0],[1,0.75,0],[0.75,1,0],[0.5,1,0],[0.25,1,0],[0,0.75,0],[0,0.5,0],[0,0.25,0]];" vertex="1" parent="1">
            <mxGeometry x="480.14" y="-145" width="240" height="120" as="geometry" />
          </mxCell>
        </object>
        <object placeholders="1" c4Name="Система для работы с расписанием" c4Type="Software System" c4Description="Система необходима для составления расписания и получения информации об имеющихся занятости врачей" label="&lt;font style=&quot;font-size: 16px&quot;&gt;&lt;b&gt;%c4Name%&lt;/b&gt;&lt;/font&gt;&lt;div&gt;[%c4Type%]&lt;/div&gt;&lt;br&gt;&lt;div&gt;&lt;font style=&quot;font-size: 11px&quot;&gt;&lt;font color=&quot;#cccccc&quot;&gt;%c4Description%&lt;/font&gt;&lt;/div&gt;" id="osxkgMMUtb1qt-IwUCUp-4">
          <mxCell style="rounded=1;whiteSpace=wrap;html=1;labelBackgroundColor=none;fillColor=#1061B0;fontColor=#ffffff;align=center;arcSize=10;strokeColor=#0D5091;metaEdit=1;resizable=0;points=[[0.25,0,0],[0.5,0,0],[0.75,0,0],[1,0.25,0],[1,0.5,0],[1,0.75,0],[0.75,1,0],[0.5,1,0],[0.25,1,0],[0,0.75,0],[0,0.5,0],[0,0.25,0]];" vertex="1" parent="1">
            <mxGeometry x="447.14" y="-440" width="240" height="120" as="geometry" />
          </mxCell>
        </object>
        <object placeholders="1" c4Name="Система уведомлений" c4Type="Software System" c4Description="Система необходима для направления уведомлений" label="&lt;font style=&quot;font-size: 16px&quot;&gt;&lt;b&gt;%c4Name%&lt;/b&gt;&lt;/font&gt;&lt;div&gt;[%c4Type%]&lt;/div&gt;&lt;br&gt;&lt;div&gt;&lt;font style=&quot;font-size: 11px&quot;&gt;&lt;font color=&quot;#cccccc&quot;&gt;%c4Description%&lt;/font&gt;&lt;/div&gt;" id="osxkgMMUtb1qt-IwUCUp-6">
          <mxCell style="rounded=1;whiteSpace=wrap;html=1;labelBackgroundColor=none;fillColor=#1061B0;fontColor=#ffffff;align=center;arcSize=10;strokeColor=#0D5091;metaEdit=1;resizable=0;points=[[0.25,0,0],[0.5,0,0],[0.75,0,0],[1,0.25,0],[1,0.5,0],[1,0.75,0],[0.75,1,0],[0.5,1,0],[0.25,1,0],[0,0.75,0],[0,0.5,0],[0,0.25,0]];" vertex="1" parent="1">
            <mxGeometry x="960.14" y="-190" width="240" height="120" as="geometry" />
          </mxCell>
        </object>
        <object placeholders="1" c4Name="Data lake" c4Type="Container" c4Technology="" c4Description="Хранилище данных" label="&lt;font style=&quot;font-size: 16px&quot;&gt;&lt;b&gt;%c4Name%&lt;/b&gt;&lt;/font&gt;&lt;div&gt;[%c4Type%:&amp;nbsp;%c4Technology%]&lt;/div&gt;&lt;br&gt;&lt;div&gt;&lt;font style=&quot;font-size: 11px&quot;&gt;&lt;font color=&quot;#E6E6E6&quot;&gt;%c4Description%&lt;/font&gt;&lt;/div&gt;" id="osxkgMMUtb1qt-IwUCUp-8">
          <mxCell style="shape=cylinder3;size=15;whiteSpace=wrap;html=1;boundedLbl=1;rounded=0;labelBackgroundColor=none;fillColor=#23A2D9;fontSize=12;fontColor=#ffffff;align=center;strokeColor=#0E7DAD;metaEdit=1;points=[[0.5,0,0],[1,0.25,0],[1,0.5,0],[1,0.75,0],[0.5,1,0],[0,0.75,0],[0,0.5,0],[0,0.25,0]];resizable=0;" vertex="1" parent="1">
            <mxGeometry x="950.14" y="530" width="240" height="120" as="geometry" />
          </mxCell>
        </object>
        <object placeholders="1" c4Name="Система обработки данных" c4Type="Software System" c4Description="Обрабатывает поступающие данные для дальнейшего сохранения в data lake" label="&lt;font style=&quot;font-size: 16px&quot;&gt;&lt;b&gt;%c4Name%&lt;/b&gt;&lt;/font&gt;&lt;div&gt;[%c4Type%]&lt;/div&gt;&lt;br&gt;&lt;div&gt;&lt;font style=&quot;font-size: 11px&quot;&gt;&lt;font color=&quot;#cccccc&quot;&gt;%c4Description%&lt;/font&gt;&lt;/div&gt;" id="osxkgMMUtb1qt-IwUCUp-9">
          <mxCell style="rounded=1;whiteSpace=wrap;html=1;labelBackgroundColor=none;fillColor=#1061B0;fontColor=#ffffff;align=center;arcSize=10;strokeColor=#0D5091;metaEdit=1;resizable=0;points=[[0.25,0,0],[0.5,0,0],[0.75,0,0],[1,0.25,0],[1,0.5,0],[1,0.75,0],[0.75,1,0],[0.5,1,0],[0.25,1,0],[0,0.75,0],[0,0.5,0],[0,0.25,0]];" vertex="1" parent="1">
            <mxGeometry x="940.14" y="319" width="240" height="120" as="geometry" />
          </mxCell>
        </object>
        <mxCell id="osxkgMMUtb1qt-IwUCUp-10" style="edgeStyle=orthogonalEdgeStyle;rounded=0;orthogonalLoop=1;jettySize=auto;html=1;exitX=0;exitY=0.5;exitDx=0;exitDy=0;exitPerimeter=0;entryX=0.278;entryY=0.022;entryDx=0;entryDy=0;entryPerimeter=0;" edge="1" parent="1" source="bFH3ZPXxLbC2_Jf3WI2n-21" target="bFH3ZPXxLbC2_Jf3WI2n-46">
          <mxGeometry relative="1" as="geometry" />
        </mxCell>
        <mxCell id="osxkgMMUtb1qt-IwUCUp-109" value="Чтение&lt;div&gt;топика с&amp;nbsp;&lt;/div&gt;&lt;div&gt;данными&lt;/div&gt;&lt;div&gt;для тегирования&lt;/div&gt;" style="edgeLabel;html=1;align=center;verticalAlign=middle;resizable=0;points=[];" vertex="1" connectable="0" parent="osxkgMMUtb1qt-IwUCUp-10">
          <mxGeometry x="-0.6049" y="-1" relative="1" as="geometry">
            <mxPoint as="offset" />
          </mxGeometry>
        </mxCell>
        <mxCell id="osxkgMMUtb1qt-IwUCUp-11" style="edgeStyle=orthogonalEdgeStyle;rounded=0;orthogonalLoop=1;jettySize=auto;html=1;exitX=0;exitY=0.25;exitDx=0;exitDy=0;exitPerimeter=0;entryX=0.5;entryY=0;entryDx=0;entryDy=0;entryPerimeter=0;" edge="1" parent="1" source="bFH3ZPXxLbC2_Jf3WI2n-22" target="bFH3ZPXxLbC2_Jf3WI2n-46">
          <mxGeometry relative="1" as="geometry" />
        </mxCell>
        <mxCell id="osxkgMMUtb1qt-IwUCUp-110" value="Чтение топика&lt;div&gt;с логами&lt;/div&gt;" style="edgeLabel;html=1;align=center;verticalAlign=middle;resizable=0;points=[];" vertex="1" connectable="0" parent="osxkgMMUtb1qt-IwUCUp-11">
          <mxGeometry x="-0.5868" y="-1" relative="1" as="geometry">
            <mxPoint as="offset" />
          </mxGeometry>
        </mxCell>
        <mxCell id="osxkgMMUtb1qt-IwUCUp-12" style="edgeStyle=orthogonalEdgeStyle;rounded=0;orthogonalLoop=1;jettySize=auto;html=1;exitX=0;exitY=0.5;exitDx=0;exitDy=0;exitPerimeter=0;entryX=1;entryY=0.5;entryDx=0;entryDy=0;entryPerimeter=0;" edge="1" parent="1" source="bFH3ZPXxLbC2_Jf3WI2n-19" target="osxkgMMUtb1qt-IwUCUp-8">
          <mxGeometry relative="1" as="geometry" />
        </mxCell>
        <mxCell id="osxkgMMUtb1qt-IwUCUp-113" value="Анализ данных" style="edgeLabel;html=1;align=center;verticalAlign=middle;resizable=0;points=[];" vertex="1" connectable="0" parent="osxkgMMUtb1qt-IwUCUp-12">
          <mxGeometry x="-0.0182" y="3" relative="1" as="geometry">
            <mxPoint as="offset" />
          </mxGeometry>
        </mxCell>
        <mxCell id="osxkgMMUtb1qt-IwUCUp-13" style="edgeStyle=orthogonalEdgeStyle;rounded=0;orthogonalLoop=1;jettySize=auto;html=1;exitX=0.5;exitY=0;exitDx=0;exitDy=0;exitPerimeter=0;entryX=0.958;entryY=0.588;entryDx=0;entryDy=0;entryPerimeter=0;" edge="1" parent="1" source="osxkgMMUtb1qt-IwUCUp-9" target="bFH3ZPXxLbC2_Jf3WI2n-46">
          <mxGeometry relative="1" as="geometry" />
        </mxCell>
        <mxCell id="osxkgMMUtb1qt-IwUCUp-111" value="Чтение данных&lt;div&gt;для аналитики&lt;/div&gt;" style="edgeLabel;html=1;align=center;verticalAlign=middle;resizable=0;points=[];" vertex="1" connectable="0" parent="osxkgMMUtb1qt-IwUCUp-13">
          <mxGeometry x="0.0377" y="-1" relative="1" as="geometry">
            <mxPoint y="1" as="offset" />
          </mxGeometry>
        </mxCell>
        <mxCell id="osxkgMMUtb1qt-IwUCUp-14" style="edgeStyle=orthogonalEdgeStyle;rounded=0;orthogonalLoop=1;jettySize=auto;html=1;exitX=0.5;exitY=1;exitDx=0;exitDy=0;exitPerimeter=0;entryX=0.46;entryY=-0.009;entryDx=0;entryDy=0;entryPerimeter=0;" edge="1" parent="1" source="osxkgMMUtb1qt-IwUCUp-9" target="osxkgMMUtb1qt-IwUCUp-8">
          <mxGeometry relative="1" as="geometry" />
        </mxCell>
        <mxCell id="osxkgMMUtb1qt-IwUCUp-112" value="Сохранение данных" style="edgeLabel;html=1;align=center;verticalAlign=middle;resizable=0;points=[];" vertex="1" connectable="0" parent="osxkgMMUtb1qt-IwUCUp-14">
          <mxGeometry x="-0.1306" y="2" relative="1" as="geometry">
            <mxPoint y="1" as="offset" />
          </mxGeometry>
        </mxCell>
        <mxCell id="osxkgMMUtb1qt-IwUCUp-15" style="edgeStyle=orthogonalEdgeStyle;rounded=0;orthogonalLoop=1;jettySize=auto;html=1;exitX=0.5;exitY=0;exitDx=0;exitDy=0;exitPerimeter=0;entryX=0.5;entryY=1;entryDx=0;entryDy=0;entryPerimeter=0;" edge="1" parent="1" source="bFH3ZPXxLbC2_Jf3WI2n-7" target="bFH3ZPXxLbC2_Jf3WI2n-5">
          <mxGeometry relative="1" as="geometry" />
        </mxCell>
        <mxCell id="osxkgMMUtb1qt-IwUCUp-37" value="Информация о принятии денежных&lt;div&gt;средств&lt;/div&gt;" style="edgeLabel;html=1;align=center;verticalAlign=middle;resizable=0;points=[];" vertex="1" connectable="0" parent="osxkgMMUtb1qt-IwUCUp-15">
          <mxGeometry x="-0.0056" y="-1" relative="1" as="geometry">
            <mxPoint as="offset" />
          </mxGeometry>
        </mxCell>
        <mxCell id="osxkgMMUtb1qt-IwUCUp-16" style="edgeStyle=orthogonalEdgeStyle;rounded=0;orthogonalLoop=1;jettySize=auto;html=1;exitX=1;exitY=0.5;exitDx=0;exitDy=0;exitPerimeter=0;entryX=1;entryY=0.5;entryDx=0;entryDy=0;entryPerimeter=0;startArrow=classic;startFill=1;" edge="1" parent="1" source="bFH3ZPXxLbC2_Jf3WI2n-6" target="bFH3ZPXxLbC2_Jf3WI2n-5">
          <mxGeometry relative="1" as="geometry">
            <Array as="points">
              <mxPoint x="770.14" y="550" />
              <mxPoint x="770.14" y="740" />
            </Array>
          </mxGeometry>
        </mxCell>
        <mxCell id="osxkgMMUtb1qt-IwUCUp-36" value="Обмен данными" style="edgeLabel;html=1;align=center;verticalAlign=middle;resizable=0;points=[];" vertex="1" connectable="0" parent="osxkgMMUtb1qt-IwUCUp-16">
          <mxGeometry x="0.0395" relative="1" as="geometry">
            <mxPoint as="offset" />
          </mxGeometry>
        </mxCell>
        <mxCell id="osxkgMMUtb1qt-IwUCUp-17" style="edgeStyle=orthogonalEdgeStyle;rounded=0;orthogonalLoop=1;jettySize=auto;html=1;exitX=1;exitY=0.5;exitDx=0;exitDy=0;exitPerimeter=0;entryX=0;entryY=0.5;entryDx=0;entryDy=0;entryPerimeter=0;startArrow=classic;startFill=1;" edge="1" parent="1" source="bFH3ZPXxLbC2_Jf3WI2n-7" target="bFH3ZPXxLbC2_Jf3WI2n-14">
          <mxGeometry relative="1" as="geometry" />
        </mxCell>
        <mxCell id="osxkgMMUtb1qt-IwUCUp-38" value="Инициация&lt;div&gt;платежа&lt;/div&gt;&lt;div&gt;и получение&lt;/div&gt;&lt;div&gt;результатов&lt;/div&gt;" style="edgeLabel;html=1;align=center;verticalAlign=middle;resizable=0;points=[];" vertex="1" connectable="0" parent="osxkgMMUtb1qt-IwUCUp-17">
          <mxGeometry x="-0.097" y="1" relative="1" as="geometry">
            <mxPoint as="offset" />
          </mxGeometry>
        </mxCell>
        <mxCell id="osxkgMMUtb1qt-IwUCUp-18" style="edgeStyle=orthogonalEdgeStyle;rounded=0;orthogonalLoop=1;jettySize=auto;html=1;exitX=1;exitY=0.5;exitDx=0;exitDy=0;exitPerimeter=0;entryX=0;entryY=0.5;entryDx=0;entryDy=0;entryPerimeter=0;startArrow=classic;startFill=1;" edge="1" parent="1" source="bFH3ZPXxLbC2_Jf3WI2n-14" target="bFH3ZPXxLbC2_Jf3WI2n-16">
          <mxGeometry relative="1" as="geometry" />
        </mxCell>
        <mxCell id="osxkgMMUtb1qt-IwUCUp-39" value="Проведение&lt;div&gt;платежа и&lt;/div&gt;&lt;div&gt;получение&lt;/div&gt;&lt;div&gt;результатов&lt;/div&gt;" style="edgeLabel;html=1;align=center;verticalAlign=middle;resizable=0;points=[];" vertex="1" connectable="0" parent="osxkgMMUtb1qt-IwUCUp-18">
          <mxGeometry x="-0.0067" y="3" relative="1" as="geometry">
            <mxPoint as="offset" />
          </mxGeometry>
        </mxCell>
        <mxCell id="osxkgMMUtb1qt-IwUCUp-19" style="edgeStyle=orthogonalEdgeStyle;rounded=0;orthogonalLoop=1;jettySize=auto;html=1;exitX=0.5;exitY=1;exitDx=0;exitDy=0;exitPerimeter=0;entryX=0;entryY=0.5;entryDx=0;entryDy=0;entryPerimeter=0;" edge="1" parent="1" source="osxkgMMUtb1qt-IwUCUp-6" target="bFH3ZPXxLbC2_Jf3WI2n-46">
          <mxGeometry relative="1" as="geometry" />
        </mxCell>
        <mxCell id="osxkgMMUtb1qt-IwUCUp-88" value="Чтение&lt;div&gt;топика с уведомлениями&lt;/div&gt;" style="edgeLabel;html=1;align=center;verticalAlign=middle;resizable=0;points=[];" vertex="1" connectable="0" parent="osxkgMMUtb1qt-IwUCUp-19">
          <mxGeometry x="-0.2081" y="-6" relative="1" as="geometry">
            <mxPoint x="6" y="-26" as="offset" />
          </mxGeometry>
        </mxCell>
        <mxCell id="osxkgMMUtb1qt-IwUCUp-20" style="edgeStyle=orthogonalEdgeStyle;rounded=0;orthogonalLoop=1;jettySize=auto;html=1;exitX=0.5;exitY=0;exitDx=0;exitDy=0;exitPerimeter=0;entryX=0;entryY=0.5;entryDx=0;entryDy=0;entryPerimeter=0;" edge="1" parent="1" source="osxkgMMUtb1qt-IwUCUp-6" target="bFH3ZPXxLbC2_Jf3WI2n-4">
          <mxGeometry relative="1" as="geometry" />
        </mxCell>
        <mxCell id="osxkgMMUtb1qt-IwUCUp-23" style="edgeStyle=orthogonalEdgeStyle;rounded=0;orthogonalLoop=1;jettySize=auto;html=1;exitX=0.5;exitY=0;exitDx=0;exitDy=0;exitPerimeter=0;entryX=0.5;entryY=1;entryDx=0;entryDy=0;entryPerimeter=0;" edge="1" parent="1" source="bFH3ZPXxLbC2_Jf3WI2n-18" target="bFH3ZPXxLbC2_Jf3WI2n-3">
          <mxGeometry relative="1" as="geometry" />
        </mxCell>
        <mxCell id="osxkgMMUtb1qt-IwUCUp-86" value="Запрос данных об анализах" style="edgeLabel;html=1;align=center;verticalAlign=middle;resizable=0;points=[];" vertex="1" connectable="0" parent="osxkgMMUtb1qt-IwUCUp-23">
          <mxGeometry x="-0.0436" y="3" relative="1" as="geometry">
            <mxPoint y="-1" as="offset" />
          </mxGeometry>
        </mxCell>
        <mxCell id="osxkgMMUtb1qt-IwUCUp-24" style="edgeStyle=orthogonalEdgeStyle;rounded=0;orthogonalLoop=1;jettySize=auto;html=1;exitX=1;exitY=0.5;exitDx=0;exitDy=0;exitPerimeter=0;entryX=0;entryY=0.5;entryDx=0;entryDy=0;entryPerimeter=0;" edge="1" parent="1" source="osxkgMMUtb1qt-IwUCUp-2" target="bFH3ZPXxLbC2_Jf3WI2n-20">
          <mxGeometry relative="1" as="geometry" />
        </mxCell>
        <mxCell id="osxkgMMUtb1qt-IwUCUp-30" value="Авторизация" style="edgeLabel;html=1;align=center;verticalAlign=middle;resizable=0;points=[];" vertex="1" connectable="0" parent="osxkgMMUtb1qt-IwUCUp-24">
          <mxGeometry x="-0.9275" y="-2" relative="1" as="geometry">
            <mxPoint x="10" y="-2" as="offset" />
          </mxGeometry>
        </mxCell>
        <mxCell id="osxkgMMUtb1qt-IwUCUp-25" style="edgeStyle=orthogonalEdgeStyle;rounded=0;orthogonalLoop=1;jettySize=auto;html=1;exitX=1;exitY=0.5;exitDx=0;exitDy=0;exitPerimeter=0;entryX=0;entryY=0.25;entryDx=0;entryDy=0;entryPerimeter=0;" edge="1" parent="1" source="bFH3ZPXxLbC2_Jf3WI2n-13" target="bFH3ZPXxLbC2_Jf3WI2n-20">
          <mxGeometry relative="1" as="geometry" />
        </mxCell>
        <mxCell id="osxkgMMUtb1qt-IwUCUp-32" value="Авторизация" style="edgeLabel;html=1;align=center;verticalAlign=middle;resizable=0;points=[];" vertex="1" connectable="0" parent="osxkgMMUtb1qt-IwUCUp-25">
          <mxGeometry x="-0.8658" y="3" relative="1" as="geometry">
            <mxPoint as="offset" />
          </mxGeometry>
        </mxCell>
        <mxCell id="osxkgMMUtb1qt-IwUCUp-28" style="edgeStyle=orthogonalEdgeStyle;rounded=0;orthogonalLoop=1;jettySize=auto;html=1;exitX=1;exitY=0.75;exitDx=0;exitDy=0;exitPerimeter=0;entryX=-0.021;entryY=0.667;entryDx=0;entryDy=0;entryPerimeter=0;" edge="1" parent="1" source="bFH3ZPXxLbC2_Jf3WI2n-5" target="bFH3ZPXxLbC2_Jf3WI2n-20">
          <mxGeometry relative="1" as="geometry" />
        </mxCell>
        <mxCell id="osxkgMMUtb1qt-IwUCUp-35" value="Авторизация" style="edgeLabel;html=1;align=center;verticalAlign=middle;resizable=0;points=[];" vertex="1" connectable="0" parent="osxkgMMUtb1qt-IwUCUp-28">
          <mxGeometry x="-0.5128" relative="1" as="geometry">
            <mxPoint as="offset" />
          </mxGeometry>
        </mxCell>
        <mxCell id="osxkgMMUtb1qt-IwUCUp-29" style="edgeStyle=orthogonalEdgeStyle;rounded=0;orthogonalLoop=1;jettySize=auto;html=1;exitX=1;exitY=0.75;exitDx=0;exitDy=0;exitPerimeter=0;entryX=-0.004;entryY=0.411;entryDx=0;entryDy=0;entryPerimeter=0;" edge="1" parent="1" source="bFH3ZPXxLbC2_Jf3WI2n-6" target="bFH3ZPXxLbC2_Jf3WI2n-20">
          <mxGeometry relative="1" as="geometry" />
        </mxCell>
        <mxCell id="osxkgMMUtb1qt-IwUCUp-34" value="Авторизация" style="edgeLabel;html=1;align=center;verticalAlign=middle;resizable=0;points=[];" vertex="1" connectable="0" parent="osxkgMMUtb1qt-IwUCUp-29">
          <mxGeometry x="-0.6751" relative="1" as="geometry">
            <mxPoint as="offset" />
          </mxGeometry>
        </mxCell>
        <mxCell id="osxkgMMUtb1qt-IwUCUp-40" style="edgeStyle=orthogonalEdgeStyle;rounded=0;orthogonalLoop=1;jettySize=auto;html=1;exitX=0;exitY=0.5;exitDx=0;exitDy=0;exitPerimeter=0;entryX=0;entryY=0.75;entryDx=0;entryDy=0;entryPerimeter=0;" edge="1" parent="1" source="bFH3ZPXxLbC2_Jf3WI2n-12" target="bFH3ZPXxLbC2_Jf3WI2n-11">
          <mxGeometry relative="1" as="geometry" />
        </mxCell>
        <mxCell id="osxkgMMUtb1qt-IwUCUp-41" value="Оплата за услуги" style="edgeLabel;html=1;align=center;verticalAlign=middle;resizable=0;points=[];" vertex="1" connectable="0" parent="osxkgMMUtb1qt-IwUCUp-40">
          <mxGeometry x="-0.7158" y="9" relative="1" as="geometry">
            <mxPoint x="-1" as="offset" />
          </mxGeometry>
        </mxCell>
        <mxCell id="osxkgMMUtb1qt-IwUCUp-43" style="edgeStyle=orthogonalEdgeStyle;rounded=0;orthogonalLoop=1;jettySize=auto;html=1;exitX=1;exitY=0.75;exitDx=0;exitDy=0;exitPerimeter=0;entryX=0;entryY=0.5;entryDx=0;entryDy=0;entryPerimeter=0;" edge="1" parent="1" source="bFH3ZPXxLbC2_Jf3WI2n-11" target="bFH3ZPXxLbC2_Jf3WI2n-7">
          <mxGeometry relative="1" as="geometry" />
        </mxCell>
        <mxCell id="osxkgMMUtb1qt-IwUCUp-44" value="Проведение&lt;div&gt;оплаты&lt;/div&gt;" style="edgeLabel;html=1;align=center;verticalAlign=middle;resizable=0;points=[];" vertex="1" connectable="0" parent="osxkgMMUtb1qt-IwUCUp-43">
          <mxGeometry x="-0.3878" y="-1" relative="1" as="geometry">
            <mxPoint as="offset" />
          </mxGeometry>
        </mxCell>
        <mxCell id="osxkgMMUtb1qt-IwUCUp-47" style="edgeStyle=orthogonalEdgeStyle;rounded=0;orthogonalLoop=1;jettySize=auto;html=1;exitX=1;exitY=0.75;exitDx=0;exitDy=0;exitPerimeter=0;entryX=0.004;entryY=0.411;entryDx=0;entryDy=0;entryPerimeter=0;" edge="1" parent="1" source="bFH3ZPXxLbC2_Jf3WI2n-10" target="bFH3ZPXxLbC2_Jf3WI2n-6">
          <mxGeometry relative="1" as="geometry" />
        </mxCell>
        <mxCell id="osxkgMMUtb1qt-IwUCUp-48" value="Учет ТМЦ" style="edgeLabel;html=1;align=center;verticalAlign=middle;resizable=0;points=[];" vertex="1" connectable="0" parent="osxkgMMUtb1qt-IwUCUp-47">
          <mxGeometry x="0.0846" y="1" relative="1" as="geometry">
            <mxPoint as="offset" />
          </mxGeometry>
        </mxCell>
        <mxCell id="osxkgMMUtb1qt-IwUCUp-49" style="edgeStyle=orthogonalEdgeStyle;rounded=0;orthogonalLoop=1;jettySize=auto;html=1;exitX=1;exitY=0.5;exitDx=0;exitDy=0;exitPerimeter=0;entryX=0.012;entryY=0.367;entryDx=0;entryDy=0;entryPerimeter=0;" edge="1" parent="1" source="bFH3ZPXxLbC2_Jf3WI2n-8" target="bFH3ZPXxLbC2_Jf3WI2n-13">
          <mxGeometry relative="1" as="geometry" />
        </mxCell>
        <mxCell id="osxkgMMUtb1qt-IwUCUp-52" value="Работа с клиентами" style="edgeLabel;html=1;align=center;verticalAlign=middle;resizable=0;points=[];" vertex="1" connectable="0" parent="osxkgMMUtb1qt-IwUCUp-49">
          <mxGeometry x="0.0535" y="1" relative="1" as="geometry">
            <mxPoint x="-1" as="offset" />
          </mxGeometry>
        </mxCell>
        <mxCell id="osxkgMMUtb1qt-IwUCUp-50" style="edgeStyle=orthogonalEdgeStyle;rounded=0;orthogonalLoop=1;jettySize=auto;html=1;exitX=0.5;exitY=1;exitDx=0;exitDy=0;exitPerimeter=0;entryX=0.5;entryY=0;entryDx=0;entryDy=0;entryPerimeter=0;" edge="1" parent="1" source="bFH3ZPXxLbC2_Jf3WI2n-13" target="bFH3ZPXxLbC2_Jf3WI2n-17">
          <mxGeometry relative="1" as="geometry" />
        </mxCell>
        <mxCell id="osxkgMMUtb1qt-IwUCUp-51" value="Обработка данных клиентов" style="edgeLabel;html=1;align=center;verticalAlign=middle;resizable=0;points=[];" vertex="1" connectable="0" parent="osxkgMMUtb1qt-IwUCUp-50">
          <mxGeometry x="-0.1222" y="2" relative="1" as="geometry">
            <mxPoint as="offset" />
          </mxGeometry>
        </mxCell>
        <mxCell id="osxkgMMUtb1qt-IwUCUp-54" style="edgeStyle=orthogonalEdgeStyle;rounded=0;orthogonalLoop=1;jettySize=auto;html=1;exitX=1;exitY=0.75;exitDx=0;exitDy=0;exitPerimeter=0;entryX=0.5;entryY=1;entryDx=0;entryDy=0;entryPerimeter=0;" edge="1" parent="1" source="bFH3ZPXxLbC2_Jf3WI2n-13" target="osxkgMMUtb1qt-IwUCUp-1">
          <mxGeometry relative="1" as="geometry" />
        </mxCell>
        <mxCell id="osxkgMMUtb1qt-IwUCUp-55" value="Работа&amp;nbsp;&lt;div&gt;с расписанием&lt;/div&gt;" style="edgeLabel;html=1;align=center;verticalAlign=middle;resizable=0;points=[];" vertex="1" connectable="0" parent="osxkgMMUtb1qt-IwUCUp-54">
          <mxGeometry x="0.59" relative="1" as="geometry">
            <mxPoint as="offset" />
          </mxGeometry>
        </mxCell>
        <mxCell id="osxkgMMUtb1qt-IwUCUp-56" style="edgeStyle=orthogonalEdgeStyle;rounded=0;orthogonalLoop=1;jettySize=auto;html=1;exitX=0;exitY=0.5;exitDx=0;exitDy=0;exitPerimeter=0;entryX=1;entryY=0.5;entryDx=0;entryDy=0;entryPerimeter=0;" edge="1" parent="1" source="osxkgMMUtb1qt-IwUCUp-1" target="osxkgMMUtb1qt-IwUCUp-4">
          <mxGeometry relative="1" as="geometry" />
        </mxCell>
        <mxCell id="osxkgMMUtb1qt-IwUCUp-68" value="Доступ&lt;div&gt;к расписанию&lt;/div&gt;" style="edgeLabel;html=1;align=center;verticalAlign=middle;resizable=0;points=[];" vertex="1" connectable="0" parent="osxkgMMUtb1qt-IwUCUp-56">
          <mxGeometry x="0.2893" y="2" relative="1" as="geometry">
            <mxPoint x="11" y="-2" as="offset" />
          </mxGeometry>
        </mxCell>
        <mxCell id="osxkgMMUtb1qt-IwUCUp-57" style="edgeStyle=orthogonalEdgeStyle;rounded=0;orthogonalLoop=1;jettySize=auto;html=1;exitX=0.584;exitY=1.012;exitDx=0;exitDy=0;exitPerimeter=0;entryX=0.25;entryY=0;entryDx=0;entryDy=0;entryPerimeter=0;" edge="1" parent="1" source="osxkgMMUtb1qt-IwUCUp-1" target="bFH3ZPXxLbC2_Jf3WI2n-20">
          <mxGeometry relative="1" as="geometry">
            <Array as="points">
              <mxPoint x="930.14" y="-320" />
              <mxPoint x="930.14" y="710" />
            </Array>
          </mxGeometry>
        </mxCell>
        <mxCell id="osxkgMMUtb1qt-IwUCUp-58" value="Проверка&lt;div&gt;токенов&lt;/div&gt;&lt;div&gt;внутренних&lt;/div&gt;&lt;div&gt;сотрудников&lt;/div&gt;" style="edgeLabel;html=1;align=center;verticalAlign=middle;resizable=0;points=[];" vertex="1" connectable="0" parent="osxkgMMUtb1qt-IwUCUp-57">
          <mxGeometry x="-0.3702" relative="1" as="geometry">
            <mxPoint x="30" y="-12" as="offset" />
          </mxGeometry>
        </mxCell>
        <mxCell id="osxkgMMUtb1qt-IwUCUp-59" style="edgeStyle=orthogonalEdgeStyle;rounded=0;orthogonalLoop=1;jettySize=auto;html=1;exitX=1;exitY=0.5;exitDx=0;exitDy=0;exitPerimeter=0;entryX=0;entryY=0.5;entryDx=0;entryDy=0;entryPerimeter=0;" edge="1" parent="1" source="bFH3ZPXxLbC2_Jf3WI2n-1" target="osxkgMMUtb1qt-IwUCUp-2">
          <mxGeometry relative="1" as="geometry" />
        </mxCell>
        <mxCell id="osxkgMMUtb1qt-IwUCUp-60" value="Работа с пациентами" style="edgeLabel;html=1;align=center;verticalAlign=middle;resizable=0;points=[];" vertex="1" connectable="0" parent="osxkgMMUtb1qt-IwUCUp-59">
          <mxGeometry x="-0.117" y="-1" relative="1" as="geometry">
            <mxPoint as="offset" />
          </mxGeometry>
        </mxCell>
        <mxCell id="osxkgMMUtb1qt-IwUCUp-61" style="edgeStyle=orthogonalEdgeStyle;rounded=0;orthogonalLoop=1;jettySize=auto;html=1;exitX=0.5;exitY=0;exitDx=0;exitDy=0;exitPerimeter=0;entryX=0.25;entryY=1;entryDx=0;entryDy=0;entryPerimeter=0;" edge="1" parent="1" source="osxkgMMUtb1qt-IwUCUp-2" target="osxkgMMUtb1qt-IwUCUp-1">
          <mxGeometry relative="1" as="geometry" />
        </mxCell>
        <mxCell id="osxkgMMUtb1qt-IwUCUp-62" value="Работа с расписанием" style="edgeLabel;html=1;align=center;verticalAlign=middle;resizable=0;points=[];" vertex="1" connectable="0" parent="osxkgMMUtb1qt-IwUCUp-61">
          <mxGeometry x="0.0091" y="3" relative="1" as="geometry">
            <mxPoint as="offset" />
          </mxGeometry>
        </mxCell>
        <mxCell id="osxkgMMUtb1qt-IwUCUp-63" style="edgeStyle=orthogonalEdgeStyle;rounded=0;orthogonalLoop=1;jettySize=auto;html=1;exitX=0.25;exitY=0;exitDx=0;exitDy=0;exitPerimeter=0;entryX=0.14;entryY=0.979;entryDx=0;entryDy=0;entryPerimeter=0;" edge="1" parent="1" source="osxkgMMUtb1qt-IwUCUp-2" target="osxkgMMUtb1qt-IwUCUp-1">
          <mxGeometry relative="1" as="geometry">
            <Array as="points">
              <mxPoint x="540.14" y="-270" />
              <mxPoint x="824.14" y="-270" />
            </Array>
          </mxGeometry>
        </mxCell>
        <mxCell id="osxkgMMUtb1qt-IwUCUp-64" value="Получение анализов" style="edgeLabel;html=1;align=center;verticalAlign=middle;resizable=0;points=[];" vertex="1" connectable="0" parent="osxkgMMUtb1qt-IwUCUp-63">
          <mxGeometry x="0.0931" y="-2" relative="1" as="geometry">
            <mxPoint x="1" as="offset" />
          </mxGeometry>
        </mxCell>
        <object placeholders="1" c4Name="Система профиля пациента" c4Type="Software System" c4Description="Система для работы с профилями пользователей" label="&lt;font style=&quot;font-size: 16px&quot;&gt;&lt;b&gt;%c4Name%&lt;/b&gt;&lt;/font&gt;&lt;div&gt;[%c4Type%]&lt;/div&gt;&lt;br&gt;&lt;div&gt;&lt;font style=&quot;font-size: 11px&quot;&gt;&lt;font color=&quot;#cccccc&quot;&gt;%c4Description%&lt;/font&gt;&lt;/div&gt;" id="osxkgMMUtb1qt-IwUCUp-65">
          <mxCell style="rounded=1;whiteSpace=wrap;html=1;labelBackgroundColor=none;fillColor=#1061B0;fontColor=#ffffff;align=center;arcSize=10;strokeColor=#0D5091;metaEdit=1;resizable=0;points=[[0.25,0,0],[0.5,0,0],[0.75,0,0],[1,0.25,0],[1,0.5,0],[1,0.75,0],[0.75,1,0],[0.5,1,0],[0.25,1,0],[0,0.75,0],[0,0.5,0],[0,0.25,0]];" vertex="1" parent="1">
            <mxGeometry x="1200.1399999999999" y="-400" width="240" height="120" as="geometry" />
          </mxCell>
        </object>
        <mxCell id="osxkgMMUtb1qt-IwUCUp-66" style="edgeStyle=orthogonalEdgeStyle;rounded=0;orthogonalLoop=1;jettySize=auto;html=1;exitX=0;exitY=0.25;exitDx=0;exitDy=0;exitPerimeter=0;entryX=0.5;entryY=1;entryDx=0;entryDy=0;entryPerimeter=0;" edge="1" parent="1" source="osxkgMMUtb1qt-IwUCUp-1" target="bFH3ZPXxLbC2_Jf3WI2n-18">
          <mxGeometry relative="1" as="geometry">
            <Array as="points">
              <mxPoint x="790.14" y="-450" />
              <mxPoint x="210.14" y="-450" />
            </Array>
          </mxGeometry>
        </mxCell>
        <mxCell id="osxkgMMUtb1qt-IwUCUp-67" value="Доступ к анализам" style="edgeLabel;html=1;align=center;verticalAlign=middle;resizable=0;points=[];" vertex="1" connectable="0" parent="osxkgMMUtb1qt-IwUCUp-66">
          <mxGeometry x="0.2542" y="1" relative="1" as="geometry">
            <mxPoint as="offset" />
          </mxGeometry>
        </mxCell>
        <mxCell id="osxkgMMUtb1qt-IwUCUp-69" style="edgeStyle=orthogonalEdgeStyle;rounded=0;orthogonalLoop=1;jettySize=auto;html=1;exitX=0.75;exitY=0;exitDx=0;exitDy=0;exitPerimeter=0;entryX=0.417;entryY=1;entryDx=0;entryDy=0;entryPerimeter=0;" edge="1" parent="1" source="osxkgMMUtb1qt-IwUCUp-2" target="osxkgMMUtb1qt-IwUCUp-1">
          <mxGeometry relative="1" as="geometry">
            <Array as="points">
              <mxPoint x="660.14" y="-200" />
              <mxPoint x="890.14" y="-200" />
            </Array>
          </mxGeometry>
        </mxCell>
        <mxCell id="osxkgMMUtb1qt-IwUCUp-70" value="Получение&lt;div&gt;данных о пациенте&lt;/div&gt;" style="edgeLabel;html=1;align=center;verticalAlign=middle;resizable=0;points=[];" vertex="1" connectable="0" parent="osxkgMMUtb1qt-IwUCUp-69">
          <mxGeometry x="-0.1439" y="-1" relative="1" as="geometry">
            <mxPoint x="1" as="offset" />
          </mxGeometry>
        </mxCell>
        <mxCell id="osxkgMMUtb1qt-IwUCUp-71" style="edgeStyle=orthogonalEdgeStyle;rounded=0;orthogonalLoop=1;jettySize=auto;html=1;exitX=0.75;exitY=1;exitDx=0;exitDy=0;exitPerimeter=0;entryX=1;entryY=0.5;entryDx=0;entryDy=0;entryPerimeter=0;" edge="1" parent="1" source="osxkgMMUtb1qt-IwUCUp-1" target="bFH3ZPXxLbC2_Jf3WI2n-17">
          <mxGeometry relative="1" as="geometry">
            <Array as="points">
              <mxPoint x="950.14" y="-320" />
              <mxPoint x="950.14" y="370" />
            </Array>
          </mxGeometry>
        </mxCell>
        <mxCell id="osxkgMMUtb1qt-IwUCUp-72" value="Получение&lt;div&gt;данных&lt;/div&gt;&lt;div&gt;о пациентах&lt;/div&gt;&lt;div&gt;доктором&lt;/div&gt;" style="edgeLabel;html=1;align=center;verticalAlign=middle;resizable=0;points=[];" vertex="1" connectable="0" parent="osxkgMMUtb1qt-IwUCUp-71">
          <mxGeometry x="-0.8802" relative="1" as="geometry">
            <mxPoint x="20" y="24" as="offset" />
          </mxGeometry>
        </mxCell>
        <mxCell id="osxkgMMUtb1qt-IwUCUp-73" style="edgeStyle=orthogonalEdgeStyle;rounded=0;orthogonalLoop=1;jettySize=auto;html=1;exitX=1;exitY=0.5;exitDx=0;exitDy=0;exitPerimeter=0;entryX=0;entryY=0.5;entryDx=0;entryDy=0;entryPerimeter=0;" edge="1" parent="1" source="osxkgMMUtb1qt-IwUCUp-1" target="bFH3ZPXxLbC2_Jf3WI2n-23">
          <mxGeometry relative="1" as="geometry" />
        </mxCell>
        <mxCell id="osxkgMMUtb1qt-IwUCUp-74" value="Авторизация&lt;div&gt;пользователей&lt;/div&gt;&lt;div&gt;/ проверка токенов&lt;/div&gt;" style="edgeLabel;html=1;align=center;verticalAlign=middle;resizable=0;points=[];" vertex="1" connectable="0" parent="osxkgMMUtb1qt-IwUCUp-73">
          <mxGeometry x="0.2338" y="2" relative="1" as="geometry">
            <mxPoint as="offset" />
          </mxGeometry>
        </mxCell>
        <mxCell id="osxkgMMUtb1qt-IwUCUp-75" style="edgeStyle=orthogonalEdgeStyle;rounded=0;orthogonalLoop=1;jettySize=auto;html=1;exitX=0.5;exitY=1;exitDx=0;exitDy=0;exitPerimeter=0;entryX=0.25;entryY=0;entryDx=0;entryDy=0;entryPerimeter=0;" edge="1" parent="1" source="bFH3ZPXxLbC2_Jf3WI2n-4" target="osxkgMMUtb1qt-IwUCUp-1">
          <mxGeometry relative="1" as="geometry" />
        </mxCell>
        <mxCell id="osxkgMMUtb1qt-IwUCUp-79" value="Запись к специалисту,&lt;div&gt;доступ к своим данным&lt;/div&gt;" style="edgeLabel;html=1;align=center;verticalAlign=middle;resizable=0;points=[];" vertex="1" connectable="0" parent="osxkgMMUtb1qt-IwUCUp-75">
          <mxGeometry x="-0.7353" relative="1" as="geometry">
            <mxPoint y="1" as="offset" />
          </mxGeometry>
        </mxCell>
        <mxCell id="osxkgMMUtb1qt-IwUCUp-76" style="edgeStyle=orthogonalEdgeStyle;rounded=0;orthogonalLoop=1;jettySize=auto;html=1;exitX=0.25;exitY=1;exitDx=0;exitDy=0;exitPerimeter=0;entryX=0.607;entryY=0.036;entryDx=0;entryDy=0;entryPerimeter=0;" edge="1" parent="1" source="bFH3ZPXxLbC2_Jf3WI2n-2" target="osxkgMMUtb1qt-IwUCUp-1">
          <mxGeometry relative="1" as="geometry" />
        </mxCell>
        <mxCell id="osxkgMMUtb1qt-IwUCUp-81" value="Запись к специалисту" style="edgeLabel;html=1;align=center;verticalAlign=middle;resizable=0;points=[];" vertex="1" connectable="0" parent="osxkgMMUtb1qt-IwUCUp-76">
          <mxGeometry x="-0.6383" y="-2" relative="1" as="geometry">
            <mxPoint y="1" as="offset" />
          </mxGeometry>
        </mxCell>
        <mxCell id="osxkgMMUtb1qt-IwUCUp-78" style="edgeStyle=orthogonalEdgeStyle;rounded=0;orthogonalLoop=1;jettySize=auto;html=1;exitX=1;exitY=0.75;exitDx=0;exitDy=0;exitPerimeter=0;entryX=-0.011;entryY=0.417;entryDx=0;entryDy=0;entryPerimeter=0;" edge="1" parent="1" source="osxkgMMUtb1qt-IwUCUp-1" target="osxkgMMUtb1qt-IwUCUp-65">
          <mxGeometry relative="1" as="geometry" />
        </mxCell>
        <mxCell id="osxkgMMUtb1qt-IwUCUp-82" value="Обработка&lt;div&gt;данных&lt;/div&gt;&lt;div&gt;о пользователе&lt;/div&gt;" style="edgeLabel;html=1;align=center;verticalAlign=middle;resizable=0;points=[];" vertex="1" connectable="0" parent="osxkgMMUtb1qt-IwUCUp-78">
          <mxGeometry x="-0.0115" y="-1" relative="1" as="geometry">
            <mxPoint x="17" as="offset" />
          </mxGeometry>
        </mxCell>
        <mxCell id="osxkgMMUtb1qt-IwUCUp-84" style="edgeStyle=orthogonalEdgeStyle;rounded=0;orthogonalLoop=1;jettySize=auto;html=1;exitX=0.25;exitY=1;exitDx=0;exitDy=0;exitPerimeter=0;entryX=1;entryY=0.25;entryDx=0;entryDy=0;entryPerimeter=0;" edge="1" parent="1" source="osxkgMMUtb1qt-IwUCUp-65" target="bFH3ZPXxLbC2_Jf3WI2n-17">
          <mxGeometry relative="1" as="geometry">
            <Array as="points">
              <mxPoint x="1260.1399999999999" y="300" />
              <mxPoint x="720.14" y="300" />
            </Array>
          </mxGeometry>
        </mxCell>
        <mxCell id="osxkgMMUtb1qt-IwUCUp-85" value="Актуализация&lt;div&gt;данных о&lt;/div&gt;&lt;div&gt;пользователе&lt;/div&gt;" style="edgeLabel;html=1;align=center;verticalAlign=middle;resizable=0;points=[];" vertex="1" connectable="0" parent="osxkgMMUtb1qt-IwUCUp-84">
          <mxGeometry x="-0.7721" y="-2" relative="1" as="geometry">
            <mxPoint y="-1" as="offset" />
          </mxGeometry>
        </mxCell>
        <mxCell id="osxkgMMUtb1qt-IwUCUp-87" style="edgeStyle=orthogonalEdgeStyle;rounded=0;orthogonalLoop=1;jettySize=auto;html=1;exitX=1;exitY=0.75;exitDx=0;exitDy=0;exitPerimeter=0;entryX=0.33;entryY=1;entryDx=0;entryDy=0;entryPerimeter=0;" edge="1" parent="1" source="osxkgMMUtb1qt-IwUCUp-2" target="bFH3ZPXxLbC2_Jf3WI2n-46">
          <mxGeometry relative="1" as="geometry" />
        </mxCell>
        <mxCell id="osxkgMMUtb1qt-IwUCUp-94" value="Запись логов,&lt;div&gt;данных&lt;div&gt;для анализа,&lt;/div&gt;&lt;div&gt;тегирования&lt;/div&gt;&lt;/div&gt;" style="edgeLabel;html=1;align=center;verticalAlign=middle;resizable=0;points=[];" vertex="1" connectable="0" parent="osxkgMMUtb1qt-IwUCUp-87">
          <mxGeometry x="-0.8156" y="2" relative="1" as="geometry">
            <mxPoint x="9" y="17" as="offset" />
          </mxGeometry>
        </mxCell>
        <mxCell id="osxkgMMUtb1qt-IwUCUp-89" style="edgeStyle=orthogonalEdgeStyle;rounded=0;orthogonalLoop=1;jettySize=auto;html=1;exitX=1;exitY=0.25;exitDx=0;exitDy=0;exitPerimeter=0;entryX=0.5;entryY=1;entryDx=0;entryDy=0;entryPerimeter=0;" edge="1" parent="1" source="bFH3ZPXxLbC2_Jf3WI2n-13" target="bFH3ZPXxLbC2_Jf3WI2n-46">
          <mxGeometry relative="1" as="geometry" />
        </mxCell>
        <mxCell id="osxkgMMUtb1qt-IwUCUp-90" style="edgeStyle=orthogonalEdgeStyle;rounded=0;orthogonalLoop=1;jettySize=auto;html=1;exitX=1;exitY=0.75;exitDx=0;exitDy=0;exitPerimeter=0;entryX=0.812;entryY=1;entryDx=0;entryDy=0;entryPerimeter=0;" edge="1" parent="1" source="bFH3ZPXxLbC2_Jf3WI2n-17" target="bFH3ZPXxLbC2_Jf3WI2n-46">
          <mxGeometry relative="1" as="geometry" />
        </mxCell>
        <mxCell id="osxkgMMUtb1qt-IwUCUp-103" value="Запись логов,&lt;div&gt;данных&lt;div&gt;для анализа,&lt;/div&gt;&lt;div&gt;тегирования&lt;/div&gt;&lt;/div&gt;" style="edgeLabel;html=1;align=center;verticalAlign=middle;resizable=0;points=[];" vertex="1" connectable="0" parent="osxkgMMUtb1qt-IwUCUp-90">
          <mxGeometry x="-0.7873" y="-4" relative="1" as="geometry">
            <mxPoint x="14" as="offset" />
          </mxGeometry>
        </mxCell>
        <mxCell id="osxkgMMUtb1qt-IwUCUp-91" style="edgeStyle=orthogonalEdgeStyle;rounded=0;orthogonalLoop=1;jettySize=auto;html=1;exitX=1;exitY=0.25;exitDx=0;exitDy=0;exitPerimeter=0;entryX=0.629;entryY=1;entryDx=0;entryDy=0;entryPerimeter=0;" edge="1" parent="1" source="bFH3ZPXxLbC2_Jf3WI2n-6" target="bFH3ZPXxLbC2_Jf3WI2n-46">
          <mxGeometry relative="1" as="geometry" />
        </mxCell>
        <mxCell id="osxkgMMUtb1qt-IwUCUp-104" value="Запись логов,&lt;div&gt;данных&lt;div&gt;для анализа,&lt;/div&gt;&lt;div&gt;тегирования&lt;/div&gt;&lt;/div&gt;" style="edgeLabel;html=1;align=center;verticalAlign=middle;resizable=0;points=[];" vertex="1" connectable="0" parent="osxkgMMUtb1qt-IwUCUp-91">
          <mxGeometry x="-0.8016" y="1" relative="1" as="geometry">
            <mxPoint as="offset" />
          </mxGeometry>
        </mxCell>
        <mxCell id="osxkgMMUtb1qt-IwUCUp-92" style="edgeStyle=orthogonalEdgeStyle;rounded=0;orthogonalLoop=1;jettySize=auto;html=1;exitX=1;exitY=0.25;exitDx=0;exitDy=0;exitPerimeter=0;entryX=0.196;entryY=1;entryDx=0;entryDy=0;entryPerimeter=0;" edge="1" parent="1" source="bFH3ZPXxLbC2_Jf3WI2n-5" target="bFH3ZPXxLbC2_Jf3WI2n-46">
          <mxGeometry relative="1" as="geometry" />
        </mxCell>
        <mxCell id="osxkgMMUtb1qt-IwUCUp-105" value="Запись логов,&lt;div&gt;данных&lt;div&gt;для анализа,&lt;/div&gt;&lt;div&gt;тегирования&lt;/div&gt;&lt;/div&gt;" style="edgeLabel;html=1;align=center;verticalAlign=middle;resizable=0;points=[];" vertex="1" connectable="0" parent="osxkgMMUtb1qt-IwUCUp-92">
          <mxGeometry x="-0.8239" y="1" relative="1" as="geometry">
            <mxPoint y="1" as="offset" />
          </mxGeometry>
        </mxCell>
        <mxCell id="osxkgMMUtb1qt-IwUCUp-93" style="edgeStyle=orthogonalEdgeStyle;rounded=0;orthogonalLoop=1;jettySize=auto;html=1;exitX=0.25;exitY=0;exitDx=0;exitDy=0;exitPerimeter=0;entryX=0.887;entryY=0.996;entryDx=0;entryDy=0;entryPerimeter=0;" edge="1" parent="1" source="bFH3ZPXxLbC2_Jf3WI2n-14" target="bFH3ZPXxLbC2_Jf3WI2n-46">
          <mxGeometry relative="1" as="geometry" />
        </mxCell>
        <mxCell id="osxkgMMUtb1qt-IwUCUp-106" value="Запись логов,&lt;div&gt;данных&lt;div&gt;для анализа,&lt;/div&gt;&lt;div&gt;тегирования&lt;/div&gt;&lt;/div&gt;" style="edgeLabel;html=1;align=center;verticalAlign=middle;resizable=0;points=[];" vertex="1" connectable="0" parent="osxkgMMUtb1qt-IwUCUp-93">
          <mxGeometry x="-0.8646" relative="1" as="geometry">
            <mxPoint y="-1" as="offset" />
          </mxGeometry>
        </mxCell>
        <mxCell id="osxkgMMUtb1qt-IwUCUp-95" value="Запись логов,&lt;div&gt;данных&lt;div&gt;для анализа,&lt;/div&gt;&lt;div&gt;тегирования&lt;/div&gt;&lt;/div&gt;" style="edgeLabel;html=1;align=center;verticalAlign=middle;resizable=0;points=[];" vertex="1" connectable="0" parent="1">
          <mxGeometry x="770.14" y="140" as="geometry" />
        </mxCell>
        <mxCell id="osxkgMMUtb1qt-IwUCUp-96" style="edgeStyle=orthogonalEdgeStyle;rounded=0;orthogonalLoop=1;jettySize=auto;html=1;exitX=1;exitY=0.75;exitDx=0;exitDy=0;exitPerimeter=0;entryX=0;entryY=0.25;entryDx=0;entryDy=0;entryPerimeter=0;" edge="1" parent="1" source="bFH3ZPXxLbC2_Jf3WI2n-2" target="bFH3ZPXxLbC2_Jf3WI2n-46">
          <mxGeometry relative="1" as="geometry">
            <Array as="points">
              <mxPoint x="1520.1399999999999" y="-760" />
              <mxPoint x="1520.1399999999999" y="-60" />
              <mxPoint x="1140.1399999999999" y="-60" />
            </Array>
          </mxGeometry>
        </mxCell>
        <mxCell id="osxkgMMUtb1qt-IwUCUp-97" value="&lt;span style=&quot;color: rgba(0, 0, 0, 0); font-family: monospace; font-size: 0px; text-align: start; background-color: rgb(236, 236, 236);&quot;&gt;%3CmxGraphModel%3E%3Croot%3E%3CmxCell%20id%3D%220%22%2F%3E%3CmxCell%20id%3D%221%22%20parent%3D%220%22%2F%3E%3CmxCell%20id%3D%222%22%20value%3D%22%D0%97%D0%B0%D0%BF%D0%B8%D1%81%D1%8C%20%D0%BB%D0%BE%D0%B3%D0%BE%D0%B2%2C%26lt%3Bdiv%26gt%3B%D0%B4%D0%B0%D0%BD%D0%BD%D1%8B%D1%85%26lt%3Bdiv%26gt%3B%D0%B4%D0%BB%D1%8F%20%D0%B0%D0%BD%D0%B0%D0%BB%D0%B8%D0%B7%D0%B0%2C%26lt%3B%2Fdiv%26gt%3B%26lt%3Bdiv%26gt%3B%D1%82%D0%B5%D0%B3%D0%B8%D1%80%D0%BE%D0%B2%D0%B0%D0%BD%D0%B8%D1%8F%26lt%3B%2Fdiv%26gt%3B%26lt%3B%2Fdiv%26gt%3B%22%20style%3D%22edgeLabel%3Bhtml%3D1%3Balign%3Dcenter%3BverticalAlign%3Dmiddle%3Bresizable%3D0%3Bpoints%3D%5B%5D%3B%22%20vertex%3D%221%22%20connectable%3D%220%22%20parent%3D%221%22%3E%3CmxGeometry%20x%3D%221150.25%22%20y%3D%22629.9999999999995%22%20as%3D%22geometry%22%2F%3E%3C%2FmxCell%3E%3C%2Froot%3E%3C%2FmxGraphModel%3E&lt;/span&gt;" style="edgeLabel;html=1;align=center;verticalAlign=middle;resizable=0;points=[];" vertex="1" connectable="0" parent="osxkgMMUtb1qt-IwUCUp-96">
          <mxGeometry x="-0.7472" y="-1" relative="1" as="geometry">
            <mxPoint as="offset" />
          </mxGeometry>
        </mxCell>
        <mxCell id="osxkgMMUtb1qt-IwUCUp-100" value="Запись логов,&lt;div&gt;данных&lt;div&gt;для анализа,&lt;/div&gt;&lt;div&gt;тегирования&lt;/div&gt;&lt;/div&gt;" style="edgeLabel;html=1;align=center;verticalAlign=middle;resizable=0;points=[];" vertex="1" connectable="0" parent="osxkgMMUtb1qt-IwUCUp-96">
          <mxGeometry x="-0.744" y="1" relative="1" as="geometry">
            <mxPoint as="offset" />
          </mxGeometry>
        </mxCell>
        <mxCell id="osxkgMMUtb1qt-IwUCUp-101" style="edgeStyle=orthogonalEdgeStyle;rounded=0;orthogonalLoop=1;jettySize=auto;html=1;exitX=0.25;exitY=1;exitDx=0;exitDy=0;exitPerimeter=0;entryX=0;entryY=0.75;entryDx=0;entryDy=0;entryPerimeter=0;" edge="1" parent="1" source="bFH3ZPXxLbC2_Jf3WI2n-4" target="bFH3ZPXxLbC2_Jf3WI2n-46">
          <mxGeometry relative="1" as="geometry">
            <Array as="points">
              <mxPoint x="700.14" y="-730" />
              <mxPoint x="700.14" y="-290" />
              <mxPoint x="1020.14" y="-290" />
            </Array>
          </mxGeometry>
        </mxCell>
        <mxCell id="osxkgMMUtb1qt-IwUCUp-102" value="Запись логов,&lt;div&gt;данных&lt;div&gt;для анализа,&lt;/div&gt;&lt;div&gt;тегирования&lt;/div&gt;&lt;/div&gt;" style="edgeLabel;html=1;align=center;verticalAlign=middle;resizable=0;points=[];" vertex="1" connectable="0" parent="osxkgMMUtb1qt-IwUCUp-101">
          <mxGeometry x="-0.4988" y="-3" relative="1" as="geometry">
            <mxPoint y="-1" as="offset" />
          </mxGeometry>
        </mxCell>
        <mxCell id="osxkgMMUtb1qt-IwUCUp-114" style="edgeStyle=orthogonalEdgeStyle;rounded=0;orthogonalLoop=1;jettySize=auto;html=1;exitX=0;exitY=0.75;exitDx=0;exitDy=0;exitPerimeter=0;entryX=0.992;entryY=0.621;entryDx=0;entryDy=0;entryPerimeter=0;" edge="1" parent="1" source="bFH3ZPXxLbC2_Jf3WI2n-26" target="bFH3ZPXxLbC2_Jf3WI2n-19">
          <mxGeometry relative="1" as="geometry" />
        </mxCell>
        <mxCell id="osxkgMMUtb1qt-IwUCUp-115" value="Анализ данных" style="edgeLabel;html=1;align=center;verticalAlign=middle;resizable=0;points=[];" vertex="1" connectable="0" parent="osxkgMMUtb1qt-IwUCUp-114">
          <mxGeometry x="-0.1164" y="3" relative="1" as="geometry">
            <mxPoint x="1" as="offset" />
          </mxGeometry>
        </mxCell>
        <mxCell id="osxkgMMUtb1qt-IwUCUp-116" style="edgeStyle=orthogonalEdgeStyle;rounded=0;orthogonalLoop=1;jettySize=auto;html=1;exitX=0.5;exitY=1;exitDx=0;exitDy=0;exitPerimeter=0;entryX=1;entryY=0.5;entryDx=0;entryDy=0;entryPerimeter=0;" edge="1" parent="1" source="bFH3ZPXxLbC2_Jf3WI2n-19" target="bFH3ZPXxLbC2_Jf3WI2n-20">
          <mxGeometry relative="1" as="geometry" />
        </mxCell>
        <mxCell id="osxkgMMUtb1qt-IwUCUp-117" value="Авторизация" style="edgeLabel;html=1;align=center;verticalAlign=middle;resizable=0;points=[];" vertex="1" connectable="0" parent="osxkgMMUtb1qt-IwUCUp-116">
          <mxGeometry x="0.2176" y="-3" relative="1" as="geometry">
            <mxPoint as="offset" />
          </mxGeometry>
        </mxCell>
      </root>
    </mxGraphModel>
  </diagram>
</mxfile>
